<?xml version="1.0" encoding="UTF-8" standalone="no"?>
<!-- Created with Inkscape (http://www.inkscape.org/) -->

<svg
   xmlns:dc="http://purl.org/dc/elements/1.1/"
   xmlns:cc="http://creativecommons.org/ns#"
   xmlns:rdf="http://www.w3.org/1999/02/22-rdf-syntax-ns#"
   xmlns:svg="http://www.w3.org/2000/svg"
   xmlns="http://www.w3.org/2000/svg"
   version="1.1"
   width="230.87039"
   height="200.51123"
   id="svg2">
  <defs
     id="defs4" />
  <metadata
     id="metadata7">
    <rdf:RDF>
      <cc:Work
         rdf:about="">
        <dc:format>image/svg+xml</dc:format>
        <dc:type
           rdf:resource="http://purl.org/dc/dcmitype/StillImage" />
        <dc:title></dc:title>
      </cc:Work>
    </rdf:RDF>
  </metadata>
  <g
     transform="translate(-210.33836,-298.42005)"
     id="layer1">
    <g
       transform="translate(710.52725,-224.37703)"
       id="g3785">
      <path
         d="m -276.28125,286.6875 c -6.417,-0.0539 -15.57235,5.21936 -33.25,17.625 -18.54149,13.01194 -19.60448,13.3153 -43,12.875 -13.18945,-0.24823 -33.8876,-1.44646 -46.03125,-2.65625 -17.2291,-1.71639 -25.20542,-1.01124 -36.28125,3.1875 -7.80663,2.95939 -19.60784,6.0781 -26.21875,6.9375 -7.09205,0.9219 -13.55427,4.01536 -15.75,7.53125 -5.51174,8.82572 -10.00591,7.36127 -21.28125,-6.875 -5.58488,-7.05149 -11.19604,-11.66337 -12.46875,-10.25 -1.27275,1.41339 -5.35487,11.75782 -9.0625,22.96875 l -6.75,20.375 15.53125,15.90625 c 13.52005,13.85704 15.4865,17.57964 15.5625,29.125 0.11247,17.12041 4.88208,25.66365 15.5625,27.90625 4.72066,0.99124 10.71029,3.17522 13.3125,4.84375 13.13031,8.41928 30.99809,15.3757 39.625,15.4375 6.68689,0.048 12.52527,3.11132 18.9375,9.9375 5.09529,5.42424 13.51433,12.5067 18.71875,15.75 5.20442,3.24334 12.03419,5.90025 15.15625,5.90625 8.11066,0.0168 21.45059,-7.50185 30.5,-17.1875 6.75102,-7.22566 7.70029,-10.98737 7.25,-28.5 l -0.53125,-20.1875 25.875,1.625 c 21.09958,1.33429 27.85449,0.56188 36.8125,-4.125 12.65803,-6.62277 25.3125,-23.83492 25.3125,-34.46875 0,-10.68657 -8.93141,-13.84375 -39.21875,-13.84375 -14.85992,0 -27.03125,-1.1469 -27.03125,-2.5625 0,-1.41557 7.60484,-5.73853 16.90625,-9.59375 19.27226,-7.9879 27.97486,-16.31102 33.125,-31.6875 5.20278,-15.53369 4.43978,-24.71648 -2.65625,-31.8125 -2.67686,-2.67686 -5.29497,-4.15925 -8.65625,-4.1875 z"
         id="path3782"
         style="fill:#fffcfc;fill-opacity:1" />
      <path
         d="m -389.10573,477.30788 c -5.20442,-3.2433 -13.63145,-10.33494 -18.72674,-15.75918 -6.41223,-6.82618 -12.23828,-9.88357 -18.92517,-9.93152 -8.62691,-0.0618 -26.49556,-7.02716 -39.62587,-15.44644 -2.60221,-1.66853 -8.59364,-3.84471 -13.3143,-4.83595 -10.68042,-2.2426 -15.44796,-10.79576 -15.56043,-27.91617 -0.076,-11.54536 -2.07029,-15.2717 -15.59034,-29.12874 l -15.50334,-15.88976 6.74118,-20.38348 c 3.70763,-11.21093 7.78247,-21.53988 9.05522,-22.95327 1.27271,-1.41337 6.88349,3.19964 12.46837,10.25113 11.27534,14.23627 15.77899,15.68783 21.29073,6.86211 2.19573,-3.51589 8.64911,-6.5994 15.74116,-7.5213 6.61091,-0.8594 18.40707,-3.98385 26.2137,-6.94324 11.07583,-4.19874 19.04415,-4.89755 36.27325,-3.18116 12.14365,1.20979 32.87072,2.40271 46.06017,2.65094 23.39552,0.4403 24.44461,0.12585 42.9861,-12.88609 26.93737,-18.90384 34.12215,-21.20395 41.90938,-13.41671 7.09603,7.09602 7.86351,16.26959 2.66073,31.80328 -5.15014,15.37648 -13.84632,23.69592 -33.11858,31.68382 -9.30141,3.85522 -16.91163,8.16767 -16.91163,9.58324 0,1.4156 12.1581,2.57379 27.01802,2.57379 30.28734,0 39.22008,3.15183 39.22008,13.8384 0,10.63383 -12.63839,27.86359 -25.29642,34.48636 -8.95801,4.68688 -15.73187,5.44241 -36.83145,4.10812 l -25.85465,-1.63504 0.51921,20.19123 c 0.45029,17.51263 -0.51341,21.29644 -7.26443,28.5221 -9.04941,9.68565 -22.38422,17.1991 -30.49488,17.18226 -3.12206,-0.006 -9.93465,-2.66539 -15.13907,-5.90873 z m 33.36498,-9.15136 c 6.44604,-5.75953 10.56287,-13.05758 12.01017,-21.29081 4.20994,-23.94927 -1.97389,-31.3175 -10.75432,-12.81408 -11.22011,23.64457 -30.50533,28.06944 -39.35212,9.02904 -4.91641,-10.58125 -13.82004,-13.64464 -16.8335,-5.7917 -3.92476,10.22779 25.25482,39.63104 39.32957,39.63104 3.18567,0 10.20577,-3.94356 15.6002,-8.76349 z m -10.39427,-27.67506 c 5.07987,-6.16277 11.83612,-18.85414 15.01394,-28.20311 6.23846,-18.35329 5.75363,-20.78382 -8.42435,-42.23102 -6.71976,-10.16502 -6.75219,-10.50852 -0.6856,-7.26178 13.71299,7.33896 70.08752,-13.31572 79.72999,-29.21172 8.33735,-13.74444 10.65717,-27.58921 5.74782,-34.30317 -4.5363,-6.20374 -1.70096,-7.58783 -37.61595,18.36249 -11.98074,8.65666 -15.13465,9.42909 -37.03085,9.06942 -13.1641,-0.21638 -35.99953,-1.36678 -50.74539,-2.5567 -22.56145,-1.8206 -28.56032,-1.2584 -37.85034,3.54737 -9.87812,5.11002 -11.22165,7.37028 -12.7692,21.48187 -1.39264,12.69882 -2.13674,14.23488 -3.81995,7.88548 -1.14973,-4.33701 -2.51682,-10.70795 -3.03799,-14.15766 -1.3036,-8.62865 -10.72647,-9.72742 -14.99656,-1.74866 -2.72888,5.09895 -2.42608,8.09742 1.36428,13.50888 5.54145,7.91154 6.32846,23.38868 1.79553,35.31116 -2.18094,5.73631 -5.39361,8.09082 -11.03968,8.09082 -6.31984,0 -7.96356,1.57436 -7.96356,7.62751 0,12.37488 3.35048,17.60605 11.27641,17.60605 4.8602,0 9.1114,-3.01323 12.23768,-8.67403 l 4.79037,-8.67404 -0.55798,11.15923 c -0.70613,14.12253 1.98651,18.37167 15.11891,23.85874 16.42752,6.86388 25.50794,5.74458 27.8101,-3.42798 1.21354,-4.8351 4.96943,-8.59099 9.80453,-9.80453 6.94106,-1.74209 8.23986,-3.95442 7.69728,-13.11142 -0.077,-1.30111 -4.26615,-1.92927 -9.30901,-1.39589 -5.04287,0.53337 -13.14126,-1.19538 -17.99645,-3.84169 -8.80803,-4.80074 -8.79614,-4.80749 5.36626,-3.04935 11.88346,1.47525 16.17942,0.40658 26.39191,-6.56536 6.70891,-4.58008 12.799,-7.72645 13.53352,-6.99197 0.73448,0.73452 -1.72901,6.52935 -5.47446,12.87738 -7.42018,12.57629 -6.77489,25.4649 1.94088,38.76686 6.36642,9.71637 8.84802,9.21962 19.69791,-3.94318 z m 94.43841,-32.8677 c 16.17017,-9.85935 17.73484,-34.88193 2.01379,-32.2054 -12.83776,2.18567 -40.48144,0.84904 -55.13284,-2.66577 -18.73422,-4.49429 -27.66589,-2.35801 -21.45089,5.13058 2.2672,2.73182 4.91099,10.87649 5.87507,18.09928 1.61135,12.07199 2.64428,13.28985 12.79256,15.08279 23.94473,4.23041 45.49573,2.90366 55.90231,-3.44148 z"
         id="path2998"
         style="fill:#000000;fill-opacity:1" />
    </g>
    <g
       transform="translate(828.94845,-95.048601)"
       id="g3800">
      <path
         d="m -490.96875,393.46875 c -4.27804,-0.008 -8.62645,0.46363 -13,1.4375 -8.03185,1.78846 -21.70097,3.14322 -30.375,3.03125 -16.42797,-0.21209 -39.9758,7.29247 -50.03125,15.9375 -3.21501,2.76404 -12.36052,14.75746 -20.34375,26.65625 -15.87497,23.66127 -15.45795,21.05072 -11.75,75.90625 3.09329,45.76226 12.79016,60.35065 48.625,73.15625 23.3806,8.35505 60.02539,3.14112 92.125,-13.125 13.74851,-6.96689 17.38367,-7.60303 26.3125,-4.65625 6.81887,2.25045 13.04084,2.38674 18.25,0.40625 8.71331,-3.31279 27.6875,-24.62226 27.6875,-31.09375 0,-2.24989 3.56915,-5.44484 7.90625,-7.09375 8.6446,-3.28671 9.35835,-7.80194 5.84375,-37.0625 -1.825,-15.19401 -2.6944,-16.5689 -10.25,-16.6875 -4.9983,-0.0785 -13.4882,-4.8889 -21.625,-12.25 C -431.95449,458.65815 -435,453.63877 -435,445.96875 c 0,-29.4846 -26.0225,-52.44097 -55.96875,-52.5 z"
         id="path3797"
         style="fill:#ffffff;fill-opacity:1" />
      <path
         d="m -567.8469,590.04733 c -35.83484,-12.8056 -45.54323,-27.41198 -48.63652,-73.17424 -3.70795,-54.85553 -4.11269,-52.24357 11.76228,-75.90484 7.98323,-11.89879 17.14541,-23.89566 20.36042,-26.6597 10.05545,-8.64503 33.57622,-16.1346 50.00419,-15.92251 8.67403,0.11197 22.34245,-1.25969 30.3743,-3.04815 34.98841,-7.79094 68.98285,17.37887 68.98285,51.07556 0,7.67002 3.04455,12.67822 13.40529,22.05132 8.1368,7.3611 16.6418,12.17825 21.6401,12.25679 7.5556,0.1186 8.3987,1.49487 10.2237,16.68888 3.5146,29.26056 2.803,33.77509 -5.8416,37.0618 -4.3371,1.64891 -7.8855,4.83888 -7.8855,7.08877 0,6.47149 -18.9799,27.78432 -27.69321,31.09711 -5.20916,1.98049 -11.44929,1.84047 -18.26816,-0.40998 -8.92883,-2.94678 -12.55483,-2.30398 -26.30334,4.66291 -32.09961,16.26612 -68.7442,21.49133 -92.1248,13.13628 z m 60.51709,-13.3414 c 9.42259,-2.79357 22.47175,-7.79897 28.99809,-11.12311 l 11.86612,-6.04388 -5.24988,-10.16771 -5.24987,-10.1677 13.10659,11.82823 c 16.73992,15.10721 28.17785,15.72029 39.61867,2.12363 4.4912,-5.3375 8.1659,-11.72475 8.1659,-14.19388 0,-6.06908 -15.4434,-5.85895 -17.78454,0.24192 -2.81241,7.32897 -6.97327,5.66371 -13.79201,-5.51984 -6.98114,-11.44992 -8.24718,-32.43389 -2.69239,-44.62536 3.6413,-7.99179 12.18955,-13.67801 12.18955,-8.10843 0,1.68037 3.54847,3.05522 7.88549,3.05522 11.2118,0 9.7554,-5.51877 -3.07064,-11.63507 -16.10315,-7.67905 -24.97593,-2.45015 -36.23287,21.35264 -7.24658,15.32289 -9.28911,17.72017 -10.12119,11.87911 -0.80015,-5.61703 -3.6083,-7.74185 -12.08211,-9.14196 -12.00351,-1.98339 -23.6647,-7.36697 -32.3305,-14.926 -10.41405,-9.08396 -5.50429,-9.16199 12.27272,-0.19493 23.12022,11.66207 31.16399,11.58261 37.34438,-0.36895 2.65747,-5.139 9.79084,-13.30048 15.85188,-18.13662 9.18798,-7.33108 11.0201,-10.82854 11.02016,-21.03726 1.9e-4,-23.07693 -29.87758,-41.43898 -55.19832,-33.92338 -8.41347,2.49726 -8.76318,3.05505 -3.1542,5.03107 22.63079,7.97275 22.95567,9.13329 3.1542,11.26736 -10.40885,1.1218 -22.47364,3.05363 -26.81066,4.29295 l -7.88549,2.25331 7.09694,-6.19215 c 3.90332,-3.40569 7.09694,-7.57333 7.09694,-9.26143 0,-8.80501 -33.03521,-5.71508 -50.7451,4.74642 -4.78217,2.82489 -14.58204,14.02598 -21.77745,24.8913 l -13.08256,19.75512 2.77433,42.43011 c 3.24807,49.67511 5.98701,55.74728 30.23893,67.03901 19.5462,9.10071 43.54079,10.0035 68.57889,2.58032 z m -19.14124,-35.9253 c 0,-1.73481 4.87547,-3.1542 10.83435,-3.1542 5.9589,0 14.47523,-1.38425 18.92517,-3.07613 9.58541,-3.64436 11.16374,1.2096 1.98979,6.11936 -7.80729,4.17833 -31.74931,4.26201 -31.74931,0.11097 z m 7.09694,-16.46645 c -3.90331,-1.88252 -7.09694,-4.72088 -7.09694,-6.30747 0,-1.58663 3.19363,-1.82969 7.09694,-0.54013 3.90332,1.28953 12.41965,2.17009 18.92517,1.95677 12.06455,-0.3956 15.83946,3.37212 6.83896,6.82593 -7.22768,2.77355 -17.61921,1.99304 -25.76413,-1.9351 z"
         id="path3000"
         style="fill:#000000" />
    </g>
    <g
       transform="translate(612.3623,-115.30486)"
       id="g3813">
      <path
         d="m -230.6875,653.8125 c -11.19222,-0.17401 -27.46695,4.82249 -35.5,12 -7.83748,7.00278 -9.95422,11.79615 -11.25,25.28125 -1.32362,13.77541 -2.93011,17.24824 -9.3125,20.15625 -6.76941,3.08433 -12.75862,0.93356 -49.25,-17.71875 -46.0956,-23.56139 -61.11302,-27.79323 -69.375,-19.53125 -6.43465,6.43465 -6.62125,11.3098 -0.875,25.0625 6.34274,15.18035 25.84475,35.7614 46.78125,49.34375 17.5232,11.36797 17.8228,11.76386 9.1875,13.03125 -4.90134,0.71934 -22.20822,-0.0201 -38.4375,-1.625 l -29.5,-2.90625 -7.375,8.59375 c -8.87767,10.32094 -7.39976,18.51001 5.5625,30.65625 11.16623,10.46325 45.51254,21.4375 67.03125,21.4375 l 16.03125,0 -17.9375,16.6875 c -9.85777,9.17423 -17.90625,18.83089 -17.90625,21.46875 0,6.00785 5.96192,13.6572 14.1875,18.15625 9.27188,5.07132 28.83084,4.34639 40.375,-1.46875 5.55199,-2.79669 16.72587,-10.59901 24.84375,-17.34375 8.11786,-6.74474 18.06796,-12.27225 22.09375,-12.28125 15.89882,-0.0382 32.10371,-7.24887 44.8125,-19.9375 7.25436,-7.24289 16.918,-15.60404 21.5,-18.59375 4.58201,-2.9897 9.22478,-8.22916 10.3125,-11.65625 1.08773,-3.42707 5.0917,-7.11504 8.90625,-8.1875 19.9037,-5.59585 24.24929,-8.77809 27.375,-20.03125 3.30002,-11.88056 4.38048,-36.08823 1.71875,-38.75 -0.83567,-0.83567 -14.9496,0.59561 -31.34375,3.1875 -24.52819,3.8779 -30.67976,4.00299 -34.75,0.625 -7.29089,-6.05091 -6.40241,-30.84167 1.5625,-43.90625 7.25988,-11.9081 7.03928,-25.02136 -0.46875,-29.71875 -2.10699,-1.31822 -5.26926,-1.97325 -9,-2.03125 z"
         id="path3810"
         style="fill:#ffffff;fill-opacity:1" />
      <path
         d="m -358.62352,873.89266 c -8.22558,-4.49905 -14.19388,-12.12268 -14.19388,-18.13053 0,-2.63786 8.06547,-12.30231 17.92324,-21.47654 l 17.92324,-16.6804 -16.01391,0 c -21.51871,0 -55.87329,-10.99776 -67.03952,-21.46101 -12.96226,-12.14624 -14.45126,-20.33642 -5.57359,-30.65736 l 7.37817,-8.57761 29.50775,2.91794 c 16.22928,1.60486 33.51796,2.32934 38.4193,1.61 8.6353,-1.26739 8.35098,-1.6716 -9.17222,-13.03957 -20.9365,-13.58235 -40.43526,-34.14139 -46.778,-49.32174 -5.74625,-13.7527 -5.57924,-18.65019 0.85541,-25.08484 8.26198,-8.26198 23.28844,-4.03264 69.38404,19.52875 36.49138,18.65231 42.48268,20.80832 49.25209,17.72399 6.38239,-2.90801 7.9816,-6.37024 9.30522,-20.14565 1.29578,-13.4851 3.42855,-18.26942 11.26603,-25.2722 10.71074,-9.57002 36.07826,-15.26568 44.5062,-9.99278 7.50803,4.69739 7.70406,17.81319 0.44418,29.72129 -7.96491,13.06458 -8.83926,37.86085 -1.54837,43.91176 4.07024,3.37799 10.22565,3.2704 34.75384,-0.6075 16.39415,-2.59189 30.49129,-4.02882 31.32696,-3.19315 2.66173,2.66177 1.59953,26.86362 -1.70049,38.74418 -3.12571,11.25316 -7.46847,14.43045 -27.37217,20.0263 -3.81455,1.07246 -7.82552,4.75394 -8.91325,8.18101 -1.08772,3.42709 -5.72656,8.67719 -10.30857,11.66689 -4.582,2.98971 -14.2663,11.36179 -21.52066,18.60468 -12.70879,12.68863 -28.90596,19.89439 -44.80478,19.93259 -4.02579,0.009 -13.96151,5.53602 -22.07937,12.28076 -8.11788,6.74474 -19.30228,14.55138 -24.85427,17.34807 -11.54416,5.81514 -31.10074,6.51399 -40.37262,1.44267 z m 34.11495,-9.48649 c 12.1652,-6.47349 30.54605,-22.49686 30.54605,-26.62829 0,-2.75371 3.20296,-3.49037 10.25114,-2.35766 23.67141,3.80418 61.81112,-20.07949 67.47353,-42.25297 3.53834,-13.85572 -0.35614,-16.73689 -13.53866,-10.01602 -12.59167,6.41957 -23.83259,7.37611 -34.22115,2.91201 -4.86567,-2.09085 -3.19514,-2.7615 7.30429,-2.93248 14.5258,-0.23657 25.00555,-4.45247 31.23429,-12.56515 5.46493,-7.11788 5.02315,-10.56044 -3.84244,-29.94262 -9.57872,-20.94121 -9.98706,-37.32435 -1.41342,-56.7065 7.37012,-16.66134 6.18509,-20.87181 -5.86968,-20.85507 -20.5175,0.0284 -38.45273,21.14847 -38.45273,45.28078 0,9.00466 -1.36539,11.14175 -8.21715,12.86142 -11.41869,2.86593 -33.01373,-4.95199 -66.13042,-23.94075 -15.4288,-8.84673 -33.40012,-16.80224 -39.9363,-17.67892 -10.97815,-1.47247 -11.88394,-0.99736 -11.88394,6.23357 0,16.4961 37.35037,53.89725 62.62175,62.70692 5.53186,1.92841 11.47134,6.14721 13.19886,9.37515 2.52806,4.72369 1.56123,6.90403 -4.95455,11.17333 -6.75398,4.4254 -12.9045,4.97041 -37.11516,3.28897 -15.96076,-1.10848 -31.93982,-2.83136 -35.50901,-3.82862 -3.96382,-1.10754 -9.43042,0.56829 -14.0462,4.30595 l -7.55682,6.11913 9.63717,9.63717 c 14.0349,14.03491 39.99926,20.76489 72.32954,18.74785 14.19716,-0.88573 27.64848,-0.47603 29.8918,0.91046 4.31056,2.66403 3.93417,3.04307 -31.72186,31.94338 -9.54144,7.73362 -17.18882,15.39503 -16.99418,17.02537 0.50855,4.25984 14.156,10.74871 22.72138,10.80325 4.01737,0.0252 10.40461,-1.60328 14.19387,-3.61966 z m 122.18261,-94.95986 c -2.88296,-12.78266 -8.91322,-24.38761 -12.67248,-24.38761 -1.62085,0 -1.69633,3.92855 -0.17727,9.22517 1.45516,5.07384 1.9263,9.94461 1.04694,10.82394 -2.14882,2.14886 9.50915,17.48579 12.09811,15.91594 1.1205,-0.67941 0.98764,-5.88926 -0.29523,-11.57744 z"
         id="path2996"
         style="fill:#000000" />
    </g>
  </g>
</svg>
